<svg xmlns="http://www.w3.org/2000/svg" viewBox="0 0 85.04 20.37"><defs><style>.cls-1{fill:#3a8244;fill-rule:evenodd;}</style></defs><title>cinewlogo</title><g id="Capa_2" data-name="Capa 2"><g id="Capa_1-2" data-name="Capa 1"><path class="cls-1" d="M79.38,4.73,80.5,6.66,76,9.38,74.65,7.62l4.73-2.89Zm-7.46,6.74c0,.4.24.8.56.8s.56-.32.56-.8-.24-.8-.56-.8-.48.32-.56.8Zm-5.21-2c-.08.65,0,1.29.24,1.29s.48-.49.56-1.21,0-1.28-.16-1.28-.48.48-.64,1.2Zm-5.94,7.86a.44.44,0,0,0,.4.56.46.46,0,0,0,.48-.48.43.43,0,0,0-.4-.56c-.24-.08-.48.16-.48.48Zm0,2.81c2.81.24,3.21-2.41,3-4l2.57-1.76c.8,1.6,4.49,1.44,6.25.4a3.32,3.32,0,0,0,3.13-.16l5.13-3c1.6-1,2,.56,1.53,1a6.28,6.28,0,0,1-2.57,1.28L79.7,16.2C85.55,16,86.76,9,82.51,9c-2.25-.24-6,3.13-7.86,3.53,2.16-5-6.58-5.45-4.58.88a1.59,1.59,0,0,1-2-.4c1.92-2.56,2.81-6.65-.4-7.22-2-.4-4,3.05-2.57,7.06a6.94,6.94,0,0,1-1.28.48l.08-3H61.74c-.65,1.52-2.25,2.4-2.49,2.08-.32-1.12,1.2-2.41,4.09-2.49V7.62c-3.77.16-6.18,2.08-6.58,4.33-.16,3.29,2.81,3.13,4.65,1.84v.73c-3.6,1.28-3.6,5.37-.64,5.61ZM45.7,14.68a3.91,3.91,0,0,0,.24,2.24c.24.08.48-1,.56-2.24s-.08-2.25-.32-2.33a4.8,4.8,0,0,0-.48,2.33ZM45.53,0l.57,8.5c-3.21,3.13-3.61,11.63-.24,11.87,3.6-.32,2.56-8.58,2.48-9.3-.4-1.69,1.45-1,1.61.24L50,15.16l2.16.08L52.27,12C52.35,10.59,54,10.59,54,12l-.08,2.65H56.2l.08-2.57C56,7.54,52.51,8.26,51.63,9.54A3.33,3.33,0,0,0,48.1,7.46L47.62,0ZM38.32,9.54c-.24.32-.32.72-.16.81s.56,0,.8-.41.32-.72.16-.8-.56,0-.8.4ZM33.75,5l-.32,4.49H32.7v2h.48l-.08,3.29,2,.08V12.35c0-.32.56-.48.88.4a3.63,3.63,0,0,0,5.7,1.85V12.27c-1,.72-2.41,1.2-3.21,0,6.65-2.73.64-8.74-2.57-2.49h-.64L35.75,5ZM25.57,9.22a.38.38,0,0,0,.4.4.37.37,0,0,0,.32-.4A.34.34,0,0,0,26,8.9a.37.37,0,0,0-.4.32ZM21.24,3.05C9.13,1.2,11.69,20.45,22.6,13.71c2.73,1.77,5.29-.48,5.29-2.08.8-.08,1.2.32,1.2.88v2h1.77l.08-2.09c0-.72.48-1,1.12-1l.08-2a1.44,1.44,0,0,0-1.6.73A2.67,2.67,0,0,0,28.13,8.9c-2.32-4.81-6.73,1-2.8,2.33,1,.16.4,1.2-.49,1.12s-1-1.28-1-2.09c-.08-1.6-3-.8-2.56,1.45-6.66,5-8.83-8.58-.16-6.34l.08-2.32ZM9,8.9c-.17.8,0,1.36.16,1.45s.48-.57.64-1.29,0-1.36-.24-1.44S9.05,8.18,9,8.9Zm-5.46.8a.53.53,0,0,0,.48.56.46.46,0,0,0,.48-.48c0-.32-.16-.56-.48-.56a.52.52,0,0,0-.48.48Zm-.08,2.09c.64,1.12,2.33,1,3.85.08-1.44-9.79,7.62-9.38,3.05.32-.4.48,1,.64,1.92-.08v2a3,3,0,0,1-3.77-.24C4.88,16.28.06,14.68,1,10.26-2.26,3.85,3.43,1,7,2.57L6.88,5.13C4.15,3.85,1.91,5.77,2.63,8c3.69-2.65,6.09,4.17.8,3.77Z"/></g></g></svg>